<svg width="250" height="32" viewBox="0 0 250 32" fill="none" xmlns="http://www.w3.org/2000/svg">
<path fill-rule="evenodd" clip-rule="evenodd" d="M10.1186 17.98C10.1186 17.98 10.1186 17.9909 10.1296 17.9909L15.2358 15.8832L17.8439 14.8022C18.0805 14.7044 18.2786 14.5251 18.3887 14.3024C19.4231 12.2545 21.5415 10.8475 23.9846 10.8475C27.4456 10.8475 30.2573 13.6669 30.2573 17.1489C30.2573 20.631 27.4511 23.4503 23.9846 23.4503C23.9846 23.4503 21.3159 23.5426 19.6652 22.4833L19.3846 23.1841C20.8317 24.0478 22.5594 24.5041 24.4027 24.3846C28.6451 24.1076 32.0841 20.7233 32.3812 16.5351C32.7333 11.5809 28.7606 7.45239 23.8195 7.45239C21.7176 7.45239 19.7918 8.20204 18.2951 9.44059C18.2676 9.46231 18.2291 9.44059 18.2291 9.40799V0.00483049C18.2291 0.00483049 18.2247 0.000503895 18.2215 3.84417e-05C18.2196 -0.00022602 18.2181 0.000821249 18.2181 0.00483049C17.8769 0.738173 10.1241 17.9855 10.1241 17.9855L10.1186 17.98ZM197.364 16.296L197.331 15.5573L197.337 15.5681H202.724V16.3069H202.426C201.75 16.3069 201.596 16.4645 201.563 17.2087V22.8799H200.814V22.5866C200.814 21.8804 200.567 21.8804 200.369 21.8804C200 21.8804 199.445 22.0647 198.798 22.2792L198.74 22.2987L198.727 22.303C197.778 22.6172 196.638 22.9945 195.334 23.1135H195.29C195.086 23.1461 194.817 23.1678 194.443 23.1678C190.971 23.1678 188.076 20.7287 187.405 17.4857C187.306 17.024 187.256 16.5405 187.256 16.0516C187.256 15.5627 187.311 15.0792 187.405 14.6175C188.071 11.3745 190.971 8.9354 194.443 8.9354C194.789 8.9354 195.048 8.95169 195.246 8.97885C195.284 8.98428 195.328 8.99515 195.367 8.99515C195.371 8.99718 195.375 8.99845 195.379 8.99924C195.386 9.00057 195.393 9.00058 195.4 9.00058C197.249 9.24503 198.872 10.1794 200 11.5429L198.91 12.6184C197.161 8.81589 193.667 9.79368 193.667 9.79368C192.308 10.1305 191.482 11.2115 191.02 12.5804C190.75 13.5093 190.563 14.7533 190.547 16.0407C190.558 17.3336 190.75 18.583 191.02 19.5119C191.477 20.8808 192.308 21.9619 193.667 22.2987C193.667 22.2987 193.958 22.3747 194.448 22.4019C194.602 22.4073 194.773 22.4127 194.954 22.4019C195.257 22.3747 195.549 22.3367 195.818 22.2715C195.876 22.2601 195.931 22.2435 195.985 22.227L196.015 22.2181C196.028 22.214 196.041 22.2101 196.055 22.2063C196.737 21.9945 197.474 21.5653 198.118 20.7668C198.498 20.1964 198.707 19.4902 198.707 18.6699V17.2087C198.707 16.4047 198.602 16.296 197.843 16.296H197.364ZM104.501 21.3589C104.985 21.8206 105.552 22.1683 106.212 22.3312L106.218 22.3367C106.218 22.3367 109.712 23.3145 111.467 19.5065L112.562 20.5821C111.483 21.8858 109.954 22.793 108.209 23.0863C108.556 23.4231 108.859 23.9066 108.82 24.5802C108.738 26.1066 107.588 26.7096 106.218 26.84C104.847 26.9704 103.84 26.275 103.84 26.275L103.257 24.4878C103.257 24.4878 104.451 25.5688 105.86 25.5688C107.483 25.5688 107.824 24.5367 107.824 24.5367C106.173 23.3036 104.253 24.0533 104.253 24.0533L104.913 22.8962C101.948 22.0162 99.7907 19.3001 99.7907 16.0788C99.7907 12.1458 103.01 8.95713 106.982 8.95713C107.334 8.95713 107.593 8.97342 107.791 9.00057C107.799 9.00057 107.807 9.00125 107.815 9.00233C107.817 9.00261 107.82 9.00293 107.822 9.00327C107.825 9.00373 107.828 9.00421 107.831 9.00473C107.838 9.00595 107.845 9.00733 107.852 9.00872C107.872 9.0128 107.893 9.01688 107.912 9.01688C107.923 9.0223 107.934 9.02231 107.945 9.02231C109.794 9.2722 111.423 10.2065 112.551 11.57L111.456 12.6456C109.701 8.83761 106.207 9.81541 106.207 9.81541C102.465 10.7498 102.729 17.301 103.697 19.9791C103.912 20.5712 104.193 21.0166 104.501 21.3589ZM48.9158 21.1742L46.7094 12.0046L46.6983 11.9992C46.6983 11.9992 43.683 21.3317 43.661 21.4186C43.6335 21.5164 43.6225 21.6033 43.6225 21.6957C43.6225 21.7934 43.628 21.8804 43.7326 21.9727C43.8646 22.1031 44.0847 22.1683 44.3708 22.1683H44.668V22.9071H41.6527V22.19L41.9278 22.1683C42.5331 22.1248 42.7366 21.913 43.0173 21.0166L46.0656 11.5429C46.2747 10.9779 46.2967 10.6791 46.2967 10.5759V10.4727C46.2967 10.1631 46.2417 9.90776 45.5373 9.90776H45.2402V9.14724H48.9818L51.8981 21.4784C52.0411 22.027 52.2392 22.1737 52.8225 22.1737H53.1196V22.9125H47.9034V22.1737H48.2005C48.7177 22.1737 48.8278 22.0542 48.8388 22.0433C48.9323 21.913 48.9763 21.788 48.9763 21.6413C48.9763 21.511 48.9543 21.3426 48.9158 21.1742ZM78.8102 12.0046L81.0166 21.1742C81.0552 21.3426 81.0772 21.511 81.0772 21.6413C81.0772 21.788 81.0331 21.913 80.9396 22.0433L80.9389 22.044C80.9246 22.0583 80.8095 22.1737 80.3013 22.1737H80.0042V22.9125H85.2205V22.1737H84.9233C84.3401 22.1737 84.142 22.027 83.9989 21.4784L81.0827 9.14724H77.3411V9.90776H77.6382C78.3425 9.90776 78.3975 10.1631 78.3975 10.4727V10.5759C78.3975 10.6791 78.3755 10.9779 78.1664 11.5429L75.1181 21.0166C74.8375 21.913 74.6339 22.1248 74.0286 22.1683L73.7535 22.19V22.9071H76.7688V22.1683H76.4717C76.1856 22.1683 75.9655 22.1031 75.8334 21.9727C75.7289 21.8804 75.7234 21.7934 75.7234 21.6957C75.7234 21.6033 75.7344 21.5164 75.7619 21.4186C75.7839 21.3317 78.7992 11.9992 78.7992 11.9992L78.8102 12.0046ZM120.892 21.1742L118.686 12.0046L118.675 11.9992C118.675 11.9992 115.66 21.3317 115.638 21.4186C115.61 21.5164 115.599 21.6033 115.599 21.6957C115.599 21.7934 115.605 21.8804 115.709 21.9727C115.841 22.1031 116.061 22.1683 116.347 22.1683H116.645V22.9071H113.629V22.19L113.904 22.1683C114.51 22.1248 114.713 21.913 114.994 21.0166L118.042 11.5429C118.251 10.9779 118.273 10.6791 118.273 10.5759V10.4727C118.273 10.1631 118.218 9.90776 117.514 9.90776H117.217V9.14724H120.958L123.875 21.4784C124.018 22.027 124.216 22.1737 124.799 22.1737H125.096V22.9125H119.88V22.1737H120.177C120.685 22.1737 120.8 22.0583 120.815 22.044L120.815 22.0433C120.909 21.913 120.953 21.788 120.953 21.6413C120.953 21.511 120.931 21.3426 120.892 21.1742ZM64.6196 18.7568L64.559 19.0502C64.1959 20.7559 63.8382 22.1737 63.1559 22.1737H59.805C59.0787 22.1737 58.9576 21.9727 58.9521 21.3426V10.9507C58.9521 10.4944 59.0016 10.2391 59.1337 10.0762C59.2217 9.95122 59.4638 9.88603 59.8105 9.88603H60.1076V9.14724H54.9409V9.88603H55.238C55.9038 9.88603 56.0909 10.125 56.0909 10.9507V21.2013C56.0909 22.0107 55.9423 22.1737 55.2215 22.1737H54.9244V22.9125H64.6086L65.3459 18.9252L64.6196 18.7623V18.7568ZM71.5691 9.8806C70.9528 9.8806 70.6997 10.0273 70.6997 10.9453V21.1036C70.6997 21.9781 70.8538 22.1683 71.5691 22.1683H71.8662V22.9071H66.683V22.1683H66.9801C67.7284 22.1683 67.8495 22.0216 67.8495 21.1036V10.9453C67.8495 10.0218 67.6514 9.8806 66.9801 9.8806H66.683V9.14182H71.8662V9.8806H71.5691ZM97.5238 10.7932C97.5238 10.2228 97.8649 9.8806 98.4371 9.8806H98.8058V9.14182H95.4934V9.8806H95.851C96.1317 9.8806 96.7754 9.97295 96.7754 10.8041V17.1163L90.7558 9.14182H87.2508V9.8806H87.548C88.2027 9.8806 88.4063 10.1033 88.4173 10.8421V21.2448C88.4173 22.0107 87.9056 22.1683 87.4819 22.1683H87.1243V22.9071H90.4477V22.1683H90.079C89.8644 22.1683 89.1546 22.1031 89.1546 21.2665V11.7602L96.3132 21.2176C96.6214 21.6142 96.7809 22.0868 96.7809 22.6192V22.9125H97.5293V10.7986L97.5238 10.7932ZM149.983 9.85344C149.373 9.85344 149.12 10.0001 149.12 10.9182V21.0655C149.12 21.9401 149.274 22.1303 149.983 22.1303H150.281V22.869H145.103V22.1303H145.4C146.143 22.1303 146.264 21.9781 146.264 21.0655V10.9182C146.264 9.99467 146.071 9.85344 145.4 9.85344H145.103V9.11465H150.281V9.85344H149.983ZM225.047 10.7606C225.047 10.1902 225.388 9.848 225.96 9.848H226.329V9.10924H223.022V9.848H223.38C223.66 9.848 224.304 9.94036 224.304 10.7715V17.0783L218.29 9.10924H214.79V9.848H215.087C215.742 9.848 215.94 10.0707 215.951 10.8095V21.2013C215.951 21.9673 215.44 22.1248 215.016 22.1248H214.658V22.8636H217.976V22.1248H217.608C217.393 22.1248 216.683 22.0596 216.683 21.2231V11.7276L223.836 21.1742C224.144 21.5707 224.304 22.0433 224.304 22.5703V22.8636H225.052V10.7661L225.047 10.7606ZM173.99 19.0122L174.056 18.7134L174.067 18.7188L174.777 18.8927L174.04 22.869H164.058V22.1411L164.345 22.1303C165.093 22.1031 165.208 21.9618 165.208 21.0655V10.9182C165.208 10.011 165.082 9.85344 164.356 9.85344H162.71C162.089 9.92406 161.896 10.1305 161.621 11.0051C161.621 11.0051 158.468 20.7776 158.396 21.1036L158.389 21.153C158.369 21.2862 158.347 21.4289 158.347 21.5544C158.347 21.6631 158.347 21.8043 158.446 21.9293C158.545 22.0488 158.765 22.1085 159.106 22.1085H159.403V22.869H155.601V22.6029C155.579 22.5051 152.74 10.5542 152.74 10.5542C152.603 10.0055 152.404 9.85344 151.821 9.85344H151.524V9.11465H156.735V9.85344H156.438C156.025 9.85344 155.843 9.93493 155.805 9.98381C155.717 10.1033 155.673 10.2283 155.673 10.3749C155.673 10.5053 157.934 20.0117 157.934 20.0117L160.966 10.5868C160.994 10.4945 161.01 10.4184 161.01 10.326C161.01 10.2337 160.994 10.1305 160.895 10.0327C160.774 9.92405 160.531 9.85344 160.245 9.85344H159.948V9.11465H173.71L174.452 13.1291L173.732 13.2486L173.671 12.9715C173.319 11.331 172.95 9.85344 172.257 9.85344H168.923C168.169 9.85344 168.059 10.049 168.059 10.7661V15.5518H170.287C171.057 15.5518 171.223 15.0521 171.223 14.6284V13.6071H171.96V18.2354H171.223V17.1924C171.223 16.6274 170.876 16.2906 170.298 16.2906H168.059V21.2285C168.059 22.027 168.152 22.1303 168.923 22.1303H172.587C173.269 22.1303 173.627 20.7179 173.99 19.0122ZM213.343 18.7134L213.277 19.0122C212.914 20.7179 212.556 22.1303 211.874 22.1303H208.209C207.439 22.1303 207.346 22.027 207.346 21.2285V16.3069C207.346 16.3069 208.551 16.2906 209.585 16.2906C210.163 16.2906 210.509 16.6274 210.509 17.1924V18.2354H211.247V13.6071H210.509V14.6284C210.509 15.0521 210.344 15.5518 209.574 15.5518H207.346V10.7661C207.346 10.049 207.456 9.85344 208.209 9.85344H211.544C212.237 9.85344 212.606 11.331 212.958 12.9715L213.019 13.2486L213.739 13.1291L213.013 9.11465H203.334V9.85344H203.632C204.358 9.85344 204.484 10.011 204.484 10.9182V21.0655C204.484 21.9618 204.369 22.1031 203.62 22.1303L203.334 22.1411V22.869H213.316L214.053 18.8927L213.343 18.7188V18.7134ZM249.224 19.0122L249.29 18.7134V18.7188L250 18.8927L249.263 22.869H239.281V22.1411L239.568 22.1303C240.316 22.1031 240.431 21.9618 240.431 21.0655V10.9182C240.431 10.011 240.305 9.85344 239.579 9.85344H239.281V9.11465H248.96L249.686 13.1291L248.966 13.2486L248.905 12.9715C248.553 11.331 248.184 9.85344 247.491 9.85344H244.156C243.403 9.85344 243.293 10.049 243.293 10.7661V15.5518H245.521C246.291 15.5518 246.456 15.0521 246.456 14.6284V13.6071H247.194V18.2354H246.456V17.1924C246.456 16.6274 246.11 16.2906 245.532 16.2906C244.498 16.2906 243.293 16.3069 243.293 16.3069V21.2285C243.293 22.027 243.386 22.1303 244.156 22.1303H247.821C248.503 22.1303 248.861 20.7179 249.224 19.0122ZM176.956 21.071C176.956 21.9673 176.84 22.1085 176.092 22.1357L175.806 22.1466V22.8745H181.628V22.1357H181.33C180.659 22.1357 179.867 21.8424 179.658 21.0112C179.537 20.5115 179.537 20.1692 179.537 19.99V19.9825C179.537 19.6391 179.536 18.68 180.268 17.8279L180.28 17.8158C180.443 17.6388 180.642 17.4223 180.852 17.263L182.783 21.2013L182.809 21.2514C182.952 21.5242 183.123 21.8489 183.366 22.1303H182.53V22.869H188.682V22.1303H186.772C186.211 22.1303 185.831 21.4078 185.694 21.0981L183.24 15.9973C184.5 15.378 185.688 14.7207 185.914 13.053C185.93 12.9661 185.93 12.6565 185.93 12.6565C185.93 11.7167 185.573 10.8747 184.901 10.2228C184.164 9.51121 183.053 9.12009 181.771 9.12009H175.812V9.85888H176.109C176.835 9.85888 176.962 10.0164 176.962 10.9236V21.071H176.956ZM180.621 16.3123L179.823 17.1272V10.7715C179.823 10.0544 179.933 9.85888 180.687 9.85888H180.934C181.6 9.85888 182.139 10.1468 182.491 10.6846C182.855 11.2658 182.932 11.9177 182.932 12.3631C182.932 12.4989 182.926 12.6076 182.915 12.7325V12.8086C182.75 14.3075 181.881 15.1277 180.88 16.0727L180.879 16.0733L180.626 16.3123H180.621ZM238.214 9.12009H227.677L226.923 13.1345L227.649 13.2431L227.71 12.977C227.722 12.928 227.733 12.8797 227.743 12.8319C227.756 12.7756 227.768 12.7202 227.78 12.6656L227.781 12.6622C227.792 12.6102 227.803 12.559 227.815 12.5086C227.824 12.4687 227.833 12.4292 227.842 12.3903L227.848 12.3595L227.849 12.3589C227.912 12.0612 227.971 11.7837 228.051 11.5266C228.376 10.3369 228.684 9.85344 229.113 9.85344H230.621C231.358 9.85344 231.485 10.011 231.485 10.9182V21.0655C231.485 21.951 231.363 22.1031 230.61 22.1303L230.324 22.1411V22.869H235.567V22.1411L235.281 22.1303C234.527 22.1031 234.406 21.9564 234.406 21.0655V10.9182C234.406 10.011 234.538 9.85344 235.27 9.85344H236.778C237.207 9.85344 237.515 10.3369 237.84 11.5266C237.914 11.7655 237.97 12.0262 238.029 12.2971L238.029 12.2973L238.029 12.2982L238.049 12.3903C238.087 12.5804 238.131 12.776 238.181 12.977L238.241 13.2431L238.968 13.1345L238.214 9.12009ZM131.842 9.11465H137.399C141.466 9.207 144.189 12.0046 144.189 16.0244C144.189 20.0443 141.455 22.8527 137.543 22.8527H131.842V22.1031L132.139 22.0922C132.882 22.0651 132.987 21.9401 132.987 21.0438V10.9236C132.987 10.0327 132.866 9.87518 132.15 9.87518H131.842V9.11465ZM135.87 20.4571V21.2068C135.87 22.027 135.996 22.0922 136.717 22.0922H137.774C140.228 22.0922 141.273 20.3322 141.273 16.1983C141.273 13.895 141.026 12.4935 140.448 11.5157C139.765 10.3967 138.626 9.87518 136.86 9.87518H136.717C135.974 9.87518 135.87 10.0653 135.87 10.7715V20.4571ZM22.2733 14.0091C22.2843 14.0091 22.2843 14.0199 22.2843 14.0199L22.2788 14.0145C22.2788 14.0145 14.526 31.2618 14.1848 31.9952C14.1848 32.006 14.1738 31.9952 14.1738 31.9952V22.592C14.1738 22.5594 14.1353 22.5377 14.1078 22.5594C12.6112 23.7979 10.6853 24.5476 8.58343 24.5476C3.6423 24.5476 -0.330417 20.4191 0.0217379 15.4649C0.318862 11.2767 3.75785 7.89242 8.00018 7.61536C9.84347 7.49586 11.5712 7.95216 13.0183 8.81588L12.7377 9.51664C11.087 8.45736 8.41836 8.54971 8.41836 8.54971C4.95186 8.54971 2.14565 11.369 2.14565 14.8511C2.14565 18.3331 4.95736 21.1524 8.41836 21.1524C10.8614 21.1524 12.9798 19.7455 14.0143 17.6976C14.1243 17.4748 14.3224 17.2956 14.559 17.1978L17.1671 16.1168L22.2733 14.0091Z" fill="#07242C"/>
</svg>
